<svg width="15" height="21" viewBox="0 0 15 21" fill="none" xmlns="http://www.w3.org/2000/svg">
<path d="M7.62885 4.89014C6.14888 4.89014 4.94427 6.06489 4.94427 7.50818C4.94427 8.95147 6.14888 10.1262 7.62885 10.1262C9.10881 10.1262 10.3134 8.95147 10.3134 7.50818C10.3134 6.06489 9.10881 4.89014 7.62885 4.89014ZM7.62885 9.37821C6.57151 9.37821 5.7113 8.53931 5.7113 7.50818C5.7113 6.47704 6.57151 5.63815 7.62885 5.63815C8.68618 5.63815 9.5464 6.47704 9.5464 7.50818C9.5464 8.53931 8.68618 9.37821 7.62885 9.37821Z" fill="white"/>
<path d="M12.7616 2.50293C11.3725 1.1483 9.52555 0.402161 7.5612 0.402161C5.59647 0.402161 3.74986 1.1483 2.36078 2.50293C-0.209901 5.0095 -0.529367 9.72567 1.66892 12.583L7.5612 20.8814L13.4447 12.5946C15.6518 9.72567 15.3323 5.0095 12.7616 2.50293ZM12.8226 12.1574L7.5612 19.5672L2.29136 12.1458C0.297485 9.55325 0.583201 5.29411 2.90345 3.03177C4.14756 1.81851 5.80165 1.15017 7.5612 1.15017C9.32075 1.15017 10.9748 1.81851 12.2193 3.03177C14.5396 5.29411 14.8253 9.55325 12.8226 12.1574Z" fill="white"/>
</svg>
